<svg xmlns="http://www.w3.org/2000/svg" xmlns:rdkit="http://www.rdkit.org/xml" xmlns:xlink="http://www.w3.org/1999/xlink" version="1.1" baseProfile="full" xml:space="preserve" width="360px" height="260px" viewBox="0 0 360 260">
<!-- END OF HEADER -->
<rect style="opacity:1.0;fill:#FFFFFF;stroke:none" width="360.0" height="260.0" x="0.0" y="0.0"> </rect>
<ellipse cx="243.3" cy="144.8" rx="12.0" ry="12.0" class="atom-4" style="fill:#E59E00D8;fill-rule:evenodd;stroke:#E59E00D8;stroke-width:1.0px;stroke-linecap:butt;stroke-linejoin:miter;stroke-opacity:1"/>
<ellipse cx="243.1" cy="104.8" rx="12.0" ry="12.0" class="atom-5" style="fill:#E59E00D8;fill-rule:evenodd;stroke:#E59E00D8;stroke-width:1.0px;stroke-linecap:butt;stroke-linejoin:miter;stroke-opacity:1"/>
<ellipse cx="208.4" cy="84.9" rx="12.0" ry="12.0" class="atom-6" style="fill:#E59E00D8;fill-rule:evenodd;stroke:#E59E00D8;stroke-width:1.0px;stroke-linecap:butt;stroke-linejoin:miter;stroke-opacity:1"/>
<path class="bond-0 atom-0 atom-1" d="M 104.7,145.3 L 117.5,152.6" style="fill:none;fill-rule:evenodd;stroke:#000000;stroke-width:2.0px;stroke-linecap:butt;stroke-linejoin:miter;stroke-opacity:1"/>
<path class="bond-0 atom-0 atom-1" d="M 117.5,152.6 L 130.3,159.9" style="fill:none;fill-rule:evenodd;stroke:#FF0000;stroke-width:2.0px;stroke-linecap:butt;stroke-linejoin:miter;stroke-opacity:1"/>
<path class="bond-1 atom-1 atom-2" d="M 148.6,159.8 L 161.3,152.4" style="fill:none;fill-rule:evenodd;stroke:#FF0000;stroke-width:2.0px;stroke-linecap:butt;stroke-linejoin:miter;stroke-opacity:1"/>
<path class="bond-1 atom-1 atom-2" d="M 161.3,152.4 L 174.0,145.0" style="fill:none;fill-rule:evenodd;stroke:#000000;stroke-width:2.0px;stroke-linecap:butt;stroke-linejoin:miter;stroke-opacity:1"/>
<path class="bond-2 atom-2 atom-3" d="M 174.0,145.0 L 208.7,164.9" style="fill:none;fill-rule:evenodd;stroke:#000000;stroke-width:2.0px;stroke-linecap:butt;stroke-linejoin:miter;stroke-opacity:1"/>
<path class="bond-2 atom-2 atom-3" d="M 180.0,141.5 L 208.7,158.0" style="fill:none;fill-rule:evenodd;stroke:#000000;stroke-width:2.0px;stroke-linecap:butt;stroke-linejoin:miter;stroke-opacity:1"/>
<path class="bond-3 atom-3 atom-4" d="M 208.7,164.9 L 243.3,144.8" style="fill:none;fill-rule:evenodd;stroke:#000000;stroke-width:2.0px;stroke-linecap:butt;stroke-linejoin:miter;stroke-opacity:1"/>
<path class="bond-4 atom-4 atom-5" d="M 243.3,144.8 L 243.1,104.8" style="fill:none;fill-rule:evenodd;stroke:#000000;stroke-width:2.0px;stroke-linecap:butt;stroke-linejoin:miter;stroke-opacity:1"/>
<path class="bond-4 atom-4 atom-5" d="M 237.3,141.3 L 237.1,108.2" style="fill:none;fill-rule:evenodd;stroke:#000000;stroke-width:2.0px;stroke-linecap:butt;stroke-linejoin:miter;stroke-opacity:1"/>
<path class="bond-5 atom-5 atom-6" d="M 243.1,104.8 L 208.4,84.9" style="fill:none;fill-rule:evenodd;stroke:#000000;stroke-width:2.0px;stroke-linecap:butt;stroke-linejoin:miter;stroke-opacity:1"/>
<path class="bond-6 atom-6 atom-7" d="M 208.4,84.9 L 173.9,105.0" style="fill:none;fill-rule:evenodd;stroke:#000000;stroke-width:2.0px;stroke-linecap:butt;stroke-linejoin:miter;stroke-opacity:1"/>
<path class="bond-6 atom-6 atom-7" d="M 208.4,91.8 L 179.9,108.5" style="fill:none;fill-rule:evenodd;stroke:#000000;stroke-width:2.0px;stroke-linecap:butt;stroke-linejoin:miter;stroke-opacity:1"/>
<path class="bond-7 atom-7 atom-2" d="M 173.9,105.0 L 174.0,145.0" style="fill:none;fill-rule:evenodd;stroke:#000000;stroke-width:2.0px;stroke-linecap:butt;stroke-linejoin:miter;stroke-opacity:1"/>
<path d="M 207.0,163.9 L 208.7,164.9 L 210.4,163.9" style="fill:none;stroke:#000000;stroke-width:2.0px;stroke-linecap:butt;stroke-linejoin:miter;stroke-opacity:1;"/>
<path d="M 241.6,145.8 L 243.3,144.8 L 243.3,142.8" style="fill:none;stroke:#000000;stroke-width:2.0px;stroke-linecap:butt;stroke-linejoin:miter;stroke-opacity:1;"/>
<path d="M 243.1,106.8 L 243.1,104.8 L 241.4,103.8" style="fill:none;stroke:#000000;stroke-width:2.0px;stroke-linecap:butt;stroke-linejoin:miter;stroke-opacity:1;"/>
<path d="M 210.2,85.9 L 208.4,84.9 L 206.7,85.9" style="fill:none;stroke:#000000;stroke-width:2.0px;stroke-linecap:butt;stroke-linejoin:miter;stroke-opacity:1;"/>
<path d="M 175.6,104.0 L 173.9,105.0 L 173.9,107.0" style="fill:none;stroke:#000000;stroke-width:2.0px;stroke-linecap:butt;stroke-linejoin:miter;stroke-opacity:1;"/>
<path class="atom-1" d="M 131.6 165.2 Q 131.6 161.1, 133.6 158.8 Q 135.7 156.5, 139.4 156.5 Q 143.2 156.5, 145.2 158.8 Q 147.2 161.1, 147.2 165.2 Q 147.2 169.3, 145.2 171.7 Q 143.2 174.0, 139.4 174.0 Q 135.7 174.0, 133.6 171.7 Q 131.6 169.3, 131.6 165.2 M 139.4 172.1 Q 142.0 172.1, 143.4 170.3 Q 144.8 168.6, 144.8 165.2 Q 144.8 161.8, 143.4 160.2 Q 142.0 158.5, 139.4 158.5 Q 136.8 158.5, 135.4 160.1 Q 134.0 161.8, 134.0 165.2 Q 134.0 168.6, 135.4 170.3 Q 136.8 172.1, 139.4 172.1 " fill="#FF0000"/>
<path class="note" d="M 109.7 141.0 Q 108.1 141.0, 107.3 139.8 Q 106.6 138.7, 106.6 136.6 Q 106.6 134.6, 107.3 133.4 Q 108.1 132.3, 109.7 132.3 Q 111.3 132.3, 112.0 133.4 Q 112.8 134.6, 112.8 136.6 Q 112.8 138.7, 112.0 139.8 Q 111.2 141.0, 109.7 141.0 M 109.7 140.0 Q 110.6 140.0, 111.1 139.2 Q 111.6 138.3, 111.6 136.6 Q 111.6 134.9, 111.1 134.1 Q 110.6 133.2, 109.7 133.2 Q 108.8 133.2, 108.3 134.1 Q 107.8 134.9, 107.8 136.6 Q 107.8 138.3, 108.3 139.2 Q 108.8 140.0, 109.7 140.0 " fill="#000000"/>
<path class="note" d="M 137.4 188.4 L 139.3 188.4 L 139.3 182.1 L 137.2 182.7 L 136.9 182.0 L 139.5 180.9 L 140.4 181.0 L 140.4 188.4 L 142.1 188.4 L 142.1 189.4 L 137.4 189.4 L 137.4 188.4 " fill="#000000"/>
<path class="note" d="M 171.2 152.4 Q 171.5 151.6, 172.3 151.2 Q 173.0 150.7, 174.0 150.7 Q 175.3 150.7, 176.0 151.4 Q 176.8 152.1, 176.8 153.3 Q 176.8 154.6, 175.8 155.8 Q 174.9 157.0, 173.0 158.3 L 176.9 158.3 L 176.9 159.3 L 171.2 159.3 L 171.2 158.5 Q 172.8 157.4, 173.7 156.5 Q 174.6 155.7, 175.1 154.9 Q 175.6 154.2, 175.6 153.4 Q 175.6 152.6, 175.1 152.1 Q 174.7 151.7, 174.0 151.7 Q 173.3 151.7, 172.9 151.9 Q 172.4 152.2, 172.1 152.8 L 171.2 152.4 " fill="#000000"/>
<path class="note" d="M 210.0 174.7 Q 210.8 174.9, 211.2 175.5 Q 211.6 176.0, 211.6 176.9 Q 211.6 177.6, 211.2 178.1 Q 210.9 178.7, 210.2 179.0 Q 209.6 179.3, 208.7 179.3 Q 207.8 179.3, 207.1 179.0 Q 206.4 178.7, 205.9 178.0 L 206.6 177.3 Q 207.1 177.9, 207.5 178.1 Q 208.0 178.3, 208.7 178.3 Q 209.5 178.3, 209.9 177.9 Q 210.4 177.5, 210.4 176.8 Q 210.4 176.0, 209.9 175.6 Q 209.4 175.2, 208.4 175.2 L 207.8 175.2 L 207.8 174.3 L 208.3 174.3 Q 209.2 174.3, 209.7 173.9 Q 210.2 173.5, 210.2 172.8 Q 210.2 172.2, 209.8 171.9 Q 209.4 171.6, 208.7 171.6 Q 208.0 171.6, 207.6 171.8 Q 207.1 172.1, 206.8 172.7 L 206.0 172.2 Q 206.3 171.5, 207.0 171.1 Q 207.7 170.6, 208.7 170.6 Q 210.0 170.6, 210.7 171.2 Q 211.4 171.8, 211.4 172.8 Q 211.4 173.4, 211.1 173.9 Q 210.7 174.4, 210.0 174.7 " fill="#000000"/>
<path class="note" d="M 254.2 151.1 L 255.2 151.1 L 255.2 152.0 L 254.2 152.0 L 254.2 154.0 L 253.1 154.0 L 253.1 152.0 L 248.7 152.0 L 248.7 151.3 L 252.4 145.5 L 254.2 145.5 L 254.2 151.1 M 250.1 151.1 L 253.1 151.1 L 253.1 146.2 L 250.1 151.1 " fill="#000000"/>
<path class="note" d="M 252.0 98.7 Q 252.7 98.7, 253.3 99.0 Q 254.0 99.3, 254.3 99.9 Q 254.7 100.5, 254.7 101.3 Q 254.7 102.2, 254.2 102.8 Q 253.8 103.4, 253.1 103.7 Q 252.4 104.1, 251.6 104.1 Q 250.8 104.1, 250.1 103.8 Q 249.4 103.5, 248.9 102.9 L 249.6 102.2 Q 250.0 102.6, 250.6 102.9 Q 251.1 103.1, 251.7 103.1 Q 252.4 103.1, 252.9 102.6 Q 253.5 102.2, 253.5 101.3 Q 253.5 100.4, 252.9 100.0 Q 252.4 99.6, 251.6 99.6 Q 250.8 99.6, 250.0 99.9 L 249.3 99.6 L 249.8 95.5 L 254.1 95.5 L 254.0 96.4 L 250.7 96.4 L 250.5 99.0 Q 251.2 98.7, 252.0 98.7 " fill="#000000"/>
<path class="note" d="M 208.8 73.9 Q 209.5 73.9, 210.1 74.2 Q 210.7 74.5, 211.0 75.1 Q 211.3 75.7, 211.3 76.4 Q 211.3 77.3, 211.0 77.9 Q 210.6 78.6, 210.0 78.9 Q 209.3 79.3, 208.5 79.3 Q 207.0 79.3, 206.2 78.3 Q 205.4 77.2, 205.4 75.2 Q 205.4 72.9, 206.4 71.8 Q 207.3 70.6, 209.1 70.6 Q 209.7 70.6, 210.1 70.7 Q 210.6 70.8, 211.0 71.1 L 210.5 71.9 Q 209.9 71.6, 209.2 71.6 Q 208.0 71.6, 207.3 72.3 Q 206.7 73.1, 206.7 74.7 Q 207.1 74.3, 207.6 74.1 Q 208.2 73.9, 208.8 73.9 M 208.5 78.3 Q 208.9 78.3, 209.3 78.1 Q 209.7 77.8, 209.9 77.4 Q 210.1 77.0, 210.1 76.5 Q 210.1 75.7, 209.7 75.3 Q 209.3 74.8, 208.6 74.8 Q 208.0 74.8, 207.5 75.1 Q 207.0 75.3, 206.7 75.6 Q 206.7 77.0, 207.1 77.7 Q 207.6 78.3, 208.5 78.3 " fill="#000000"/>
<path class="note" d="M 166.8 96.8 L 162.4 96.8 L 162.4 95.8 L 168.0 95.8 L 168.0 96.6 L 164.6 104.3 L 163.4 104.3 L 166.8 96.8 " fill="#000000"/>
</svg>